<svg xmlns="http://www.w3.org/2000/svg" version="1.1" x="0" y="0" viewBox="0 0 570 120" enable-background="new 0 0 570 120" xml:space="preserve">
  <g display="none"/>
  <g opacity="0.6">
    <defs>
      <rect x="-267.6" y="354.5" opacity="0.6" width="1120" height="190"/>
    </defs>
    <clipPath>
      <use overflow="visible"/>
    </clipPath>
    <g clip-path="url(#SVGID_2_)">
      <image overflow="visible" width="2560" height="1920" transform="matrix(0.4375 0 0 0.4375 -267.626 -270.5093)"/>
    </g>
  </g>
  <rect x="188.4" y="3" fill="#FFFFFF" width="4.5" height="54.2"/>
  <path fill="#FFFFFF" d="M131.8 2.3h-23.7v4.5h10.3v26H111v4.5h7.4V79h4.5V37.2h8.8c6.7 0 16.7-4.6 16.7-17.3C148.3 7 139.8 2.3 131.8 2.3zM131.6 32.8h-8.8v-26h9c4.5 0 12.1 1.7 12.1 13.2C143.9 30.5 135 32.8 131.6 32.8z"/>
  <polygon fill="#FFFFFF" points="266.3 37.2 286 37.2 286 50.4 290.4 50.4 290.4 37.2 309.3 37.2 309.3 51.8 313.7 51.8 313.7 37.2 313.7 32.8 313.7 3 309.3 3 309.3 32.8 290.4 32.8 290.4 3 286 3 286 32.8 266.3 32.8 "/>
  <path fill="#FFFFFF" d="M331.8 56.4c9.8 0 13.3-5.2 13.3-10.2V12c0-4.1-3.5-10.3-13-10.3 -9.8 0-13.3 5.2-13.3 10.2v34.3C318.8 50.3 322.3 56.4 331.8 56.4zM323.2 11.9c0-5 5.5-5.7 8.8-5.7 7 0 8.6 4.2 8.6 5.8v34.3c0 5-5.5 5.7-8.8 5.7 -7 0-8.6-4.2-8.6-5.8V11.9zM404.1 34.9L386.8 26c0 0-0.8-0.5-0.8-2.3V11.9c0-5 5.5-5.7 8.8-5.7 7 0 8.6 4.2 8.6 5.8v7.2h4.5V12c0-4.1-3.5-10.3-13-10.3 -9.8 0-13.3 5.2-13.3 10.2v11.8c0 4 2.2 5.9 3.3 6.3l17.2 8.9c0.1 0.1 1.4 0.7 1.4 2v18.1c0 5-5.5 5.7-8.8 5.7 -7 0-8.6-4.2-8.6-5.8v-8.8c0 0 1.4 1.1 2.5 1.7 1.9 1 4 0.5 4 0.5l-10.9-10.2V59c0 4.1 3.5 10.3 13 10.3 9.8 0 13.3-5.2 13.3-10.2V40.9C407.9 37.5 405.4 35.5 404.1 34.9zM371.7 50.8c0 5-5.5 5.7-8.8 5.7 -7 0-8.6-4.2-8.6-5.8V2.8h-4.5v47.9c0 4.1 3.5 10.3 13 10.3 9.8 0 13.3-5.2 13.3-10.2V2.9h-4.5V50.8zM166.4 1.7c-9.8 0-13.3 5.2-13.3 10.2v42.8c0 4.1 3.5 10.3 13 10.3 9.8 0 13.3-5.2 13.3-10.2V12C179.4 7.9 175.9 1.7 166.4 1.7zM174.9 54.8c0 5-5.5 5.7-8.8 5.7 -7 0-8.6-4.2-8.6-5.8V11.9c0-5 5.5-5.7 8.8-5.7 7 0 8.6 4.2 8.6 5.8V54.8z"/>
  <polygon fill="#FFFFFF" points="239.2 6.8 250 6.8 250 50.2 254.4 50.2 254.4 6.8 265.2 6.8 265.2 9.3 269.6 9.3 269.6 2.3 234.8 2.3 234.8 9.3 239.2 9.3 "/>
  <polygon fill="#FFFFFF" points="203.8 54.7 208.2 54.7 208.2 9.5 225.5 53.3 231 53.3 231 53.1 231.7 53.1 231.7 2.4 227.2 2.4 227.2 45.6 210.2 2.3 200.3 2.3 200.3 6.8 203.8 6.8 "/>
  <polygon fill="#FFFFFF" points="413.2 78.7 440.9 78.7 440.9 72 436.4 72 436.4 74.3 417.6 74.3 417.6 37.2 438.7 37.2 438.7 32.8 417.6 32.8 417.6 6.8 436.4 6.8 436.4 9.1 440.9 9.1 440.9 2.3 413.2 2.3 "/>
  <polygon fill="#FFFFFF" points="12.4 53.4 1.3 41.8 1.3 56.6 2.9 56.6 2.9 45.7 14 57.2 14 42.4 12.4 42.4 "/>
  <path fill="#FFFFFF" d="M29.3 42.2c-4 0-7.4 3.3-7.4 7.4 0 4.1 3.3 7.3 7.4 7.3 4 0 7.4-3.2 7.4-7.3C36.7 45.5 33.3 42.2 29.3 42.2zM29.3 55.4c-3.2 0-5.8-2.7-5.8-5.9 0-3.2 2.5-5.9 5.8-5.9 3.3 0 5.8 2.7 5.8 5.9C35.1 52.7 32.5 55.4 29.3 55.4zM51.7 46.3c0-3.2-2.5-3.9-5.2-3.9h-2.1v14.2H46v-6.2h0.4l4.3 6.2h1.9l-4.5-6.4C50.3 50 51.7 48.5 51.7 46.3zM46 49v-5.1h0.5c1.9 0 3.6 0.2 3.6 2.6 0 2.2-1.8 2.5-3.6 2.5H46z"/>
  <polygon fill="#FFFFFF" points="58.7 43.9 62.1 43.9 62.1 56.6 63.7 56.6 63.7 43.9 67.2 43.9 67.2 42.4 58.7 42.4 "/>
  <polygon fill="#FFFFFF" points="83.3 48.2 76.1 48.2 76.1 42.4 74.5 42.4 74.5 56.6 76.1 56.6 76.1 49.6 83.3 49.6 83.3 56.6 84.9 56.6 84.9 42.4 83.3 42.4 "/>
  <path fill="#FFFFFF" d="M463 49.5c0 4 3.4 7.3 7.4 7.3 1.5 0 3-0.5 4.2-1.4v-2c-1.1 1.1-2.7 1.9-4.3 1.9 -3.2 0-5.8-2.7-5.8-5.9 0-3.1 2.6-5.9 5.7-5.9 1.6 0 3.2 0.7 4.3 1.9v-2c-1.3-0.9-2.7-1.4-4.2-1.4C466.4 42.1 463 45.4 463 49.5zM481.7 56.5h1.7l1.7-4h6.1l1.7 4h1.7l-6.4-14.9L481.7 56.5zM485.7 51l2.4-5.7 2.4 5.7H485.7zM507.6 43.1c-1-0.7-2.3-0.8-3.5-0.8h-2.3v14.2h1.6v-6.2h1.1c1.2 0 2.4-0.2 3.4-0.9 0.9-0.7 1.4-1.9 1.4-3C509.2 45.1 508.7 43.8 507.6 43.1zM504.4 48.8h-1.1v-5h0.6c1.8 0 3.7 0.2 3.7 2.5C507.7 48.3 506.2 48.8 504.4 48.8z"/>
  <polygon fill="#FFFFFF" points="515.6 43.8 519.1 43.8 519.1 56.5 520.7 56.5 520.7 43.8 524.1 43.8 524.1 42.3 515.6 42.3 "/>
  <rect x="531.4" y="42.3" fill="#FFFFFF" width="1.6" height="14.2"/>
  <polygon fill="#FFFFFF" points="546 53.2 541.9 42.3 540.2 42.3 546 57.4 551.7 42.3 550 42.3 "/>
  <path fill="#FFFFFF" d="M562.3 41.7l-6.6 14.9h1.7l1.7-4h6.1l1.7 4h1.8L562.3 41.7zM559.8 51l2.4-5.7 2.4 5.7H559.8z"/>
  <circle fill="#FFFFFF" cx="339.4" cy="86.2" r="2.6"/>
  <path fill="#FFFFFF" d="M208.1 88c0 1.6 1.6 1.7 3.1 2.2 2.1 0.6 3.7-1.1 3.7-2.7 0-1.6-0.8-3-2.4-3C211 84.5 208.1 85.9 208.1 88zM292.6 87.1c7.4 0.3 17.6 4.4 17.7 4.5 0.6 0.2 1.3 0 1.6-0.7 0.2-0.6 0-1.3-0.7-1.6 -0.4-0.2-10.7-4.3-18.5-4.6 -1.6-0.1-3.2 0-4.1 1.1 -0.9 1.1-0.9 2.7 0 5.6 1.8 6.4 7.4 9.8 12 9.8 0 0 0.1 0 0.1 0 7.2-0.1 10.5-2.1 10.6-2.2 0.6-0.3 0.7-1.1 0.4-1.7 -0.4-0.6-1.1-0.7-1.7-0.4 0 0-3 1.7-9.4 1.8 0 0-0.1 0-0.1 0 -1.6 0-3.4-0.5-5.1-1.6l8.5 0.3c0 0 0 0 0 0 0.3 0 0.5-0.2 0.5-0.5 0-0.3-0.2-0.5-0.5-0.5l-9.9-0.3c-0.8-0.7-1.5-1.6-2.1-2.7l15 2.1c0 0 0 0 0.1 0 0.3 0 0.5-0.2 0.5-0.4 0-0.3-0.2-0.5-0.4-0.6l-15.7-2.2c-0.2-0.5-0.4-1-0.6-1.6 -0.2-0.6-0.3-1-0.4-1.4l19.5 4.6c0 0 0.1 0 0.1 0 0.2 0 0.4-0.2 0.5-0.4 0.1-0.3-0.1-0.6-0.4-0.6l-19.9-4.7c0-0.6 0.1-0.9 0.1-0.9C290.7 87.2 291.4 87.1 292.6 87.1zM313.7 75.8c-1.5 0-2.6 1.2-2.6 2.6 0 1.5 1.2 2.6 2.6 2.6V75.8zM305.3 75.8c-1.5 0-2.6 1.2-2.6 2.6 0 1.5 1.2 2.6 2.6 2.6V75.8zM282.5 77.1c-1.5 0-2.6 1.2-2.6 2.6 0 1.5 1.2 2.6 2.6 2.6V77.1zM282.5 83.5c-1.5 0-2.6 1.2-2.6 2.6 0 1.5 1.2 2.6 2.6 2.6V83.5zM279.8 93.4c0 1.5 1.2 2.6 2.6 2.6v-5.3C281 90.7 279.8 91.9 279.8 93.4zM278.7 80.8c-1.5 0-2.6 1.2-2.6 2.6 0 1.5 1.2 2.6 2.6 2.6V80.8zM278.7 87.3c-1.5 0-2.6 1.2-2.6 2.6 0 1.5 1.2 2.6 2.6 2.6V87.3zM276 96.3c0 1.5 1.2 2.6 2.6 2.6v-5.3C277.2 93.7 276 94.9 276 96.3zM278.7 74.8c-1.5 0-2.6 1.2-2.6 2.6 0 1.5 1.2 2.6 2.6 2.6V74.8zM274.9 77.1c-1.5 0-2.6 1.2-2.6 2.6 0 1.5 1.2 2.6 2.6 2.6V77.1zM274.9 83.5c-1.5 0-2.6 1.2-2.6 2.6 0 1.5 1.2 2.6 2.6 2.6V83.5zM272.2 93.4c0 1.5 1.2 2.6 2.6 2.6v-5.3C273.4 90.7 272.2 91.9 272.2 93.4zM271.1 80.8c-1.5 0-2.6 1.2-2.6 2.6 0 1.5 1.2 2.6 2.6 2.6V80.8zM271.1 87.7c-1.5 0-2.6 1.2-2.6 2.6 0 1.5 1.2 2.6 2.6 2.6V87.7zM268.4 97.2c0 1.5 1.2 2.6 2.6 2.6v-5.3C269.6 94.5 268.4 95.7 268.4 97.2zM271.1 74.8c-1.5 0-2.6 1.2-2.6 2.6 0 1.5 1.2 2.6 2.6 2.6V74.8zM297.7 76.6c-1.5 0-2.6 1.2-2.6 2.6s1.2 2.6 2.6 2.6V76.6zM293.9 74.4c-1.5 0-2.6 1.2-2.6 2.6 0 1.5 1.2 2.6 2.6 2.6V74.4zM290.1 76.6c-1.5 0-2.6 1.2-2.6 2.6s1.2 2.6 2.6 2.6V76.6zM286.3 74.4c-1.5 0-2.6 1.2-2.6 2.6 0 1.5 1.2 2.6 2.6 2.6V74.4zM286.3 80.4c-1.5 0-2.6 1.2-2.6 2.6 0 1.5 1.2 2.6 2.6 2.6V80.4zM283.6 96.9c0 1.5 1.2 2.6 2.6 2.6v-5.3C284.8 94.2 283.6 95.4 283.6 96.9zM309.1 78.5v-5.3c-1.5 0-2.6 1.2-2.6 2.6C306.4 77.3 307.6 78.5 309.1 78.5zM309.1 84.6v-5.3c-1.5 0-2.6 1.2-2.6 2.6S307.6 84.6 309.1 84.6zM320.9 81.5v-5.3c-1.5 0-2.6 1.2-2.6 2.6C318.3 80.4 319.5 81.5 320.9 81.5zM317.1 85.5v-5.3c-1.5 0-2.6 1.2-2.6 2.6C314.5 84.3 315.7 85.5 317.1 85.5zM301.5 78.5v-5.3c-1.5 0-2.6 1.2-2.6 2.6C298.8 77.3 300 78.5 301.5 78.5zM301.5 84.5v-5.3c-1.5 0-2.6 1.2-2.6 2.6C298.8 83.3 300 84.5 301.5 84.5zM267.3 77.1c-1.5 0-2.6 1.2-2.6 2.6 0 1.5 1.2 2.6 2.6 2.6V77.1zM267.3 83.5c-1.5 0-2.6 1.2-2.6 2.6 0 1.5 1.2 2.6 2.6 2.6V83.5zM264.6 92.5c0 1.5 1.2 2.6 2.6 2.6v-5.3C265.8 89.9 264.6 91.1 264.6 92.5zM263.5 80.8c-1.5 0-2.6 1.2-2.6 2.6 0 1.5 1.2 2.6 2.6 2.6V80.8zM263.5 87.3c-1.5 0-2.6 1.2-2.6 2.6 0 1.5 1.2 2.6 2.6 2.6V87.3zM260.8 96.7c0 1.5 1.2 2.6 2.6 2.6v-5.3C262 94.1 260.8 95.3 260.8 96.7zM259.7 77.1c-1.5 0-2.6 1.2-2.6 2.6 0 1.5 1.2 2.6 2.6 2.6V77.1zM259.7 83.1c-1.5 0-2.6 1.2-2.6 2.6 0 1.5 1.2 2.6 2.6 2.6V83.1zM257 93c0 1.5 1.2 2.6 2.6 2.6v-5.3C258.2 90.3 257 91.5 257 93zM255.9 80.8c-1.5 0-2.6 1.2-2.6 2.6 0 1.5 1.2 2.6 2.6 2.6V80.8zM255.9 87.3c-1.5 0-2.6 1.2-2.6 2.6 0 1.5 1.2 2.6 2.6 2.6V87.3zM253.2 96.7c0 1.5 1.2 2.6 2.6 2.6v-5.3C254.4 94.1 253.2 95.3 253.2 96.7zM252.1 83.5c-1.5 0-2.6 1.2-2.6 2.6 0 1.5 1.2 2.6 2.6 2.6V83.5zM249.4 93c0 1.5 1.2 2.6 2.6 2.6v-5.3C250.6 90.3 249.4 91.5 249.4 93zM244.5 83.5c-1.5 0-2.6 1.2-2.6 2.6 0 1.5 1.2 2.6 2.6 2.6V83.5zM241.8 92.5c0 1.5 1.2 2.6 2.6 2.6v-5.3C243 89.9 241.8 91.1 241.8 92.5zM248.3 80.8c-1.5 0-2.6 1.2-2.6 2.6 0 1.5 1.2 2.6 2.6 2.6V80.8zM245.6 89.9c0 1.5 1.2 2.6 2.6 2.6v-5.3C246.8 87.3 245.6 88.4 245.6 89.9zM240.7 92.5v-5.3c-1.5 0-2.6 1.2-2.6 2.6C238 91.4 239.2 92.5 240.7 92.5zM354.5 86c-3.7-2.6-17.4-11.5-39.8-15.3 -6.7-1.1-13.5-1.7-20.4-1.8 -0.5-0.9-1.3-2.5-2.5-4.2 -2.5-3.4-5.1-5-7.7-4.8 -0.5 0.1-0.5 0.1-14 10.8 -2.4-1.9-9.6-7.4-13.1-6.2 -3.5 1.2-18.8 6.8-28.5 11.2 -1.1 0.5-2 1.2-2.7 2 -0.1 0-0.2 0-0.2 0.1 -0.1 0.1-0.2 0.2-0.2 0.4 -1.2 1.5-2 3.3-2.2 4.7 -2.1-0.1-4.2-0.5-6.2-1.4 -2.4-1-5.1-2.5-8-4 -8.1-4.2-16.4-8.6-20.9-5.4 -0.3 0.2-0.5 0.5-0.5 0.9 -0.1 0.7 0.3 1.1 1 2 1.9 2.3 6.2 7.7 4.6 17.8 -1.7 10.7-0.7 16.4 0.8 18.2 0.3 0.4 0.7 0.6 1.2 0.6 0 0 0.1 0 0.1 0 3.8 0 12.2-6 20.7-12.4l0.1-0.1c3.5-2.7 12.3-2.4 19.5-0.6 -1 0.5-2.2 1.2-3.1 1.8 -1.1 0.7-1.3 2.1-0.7 4.2 0.8 2.5 3.9 8.4 6.4 8.4 0 0 0.1 0 0.1 0 7.8-0.5 11.5-7 12.6-9.3 7.4 2 17.7 4 30.6 4.7 3.7 0.2 7.4 0.3 11.1 0.2 -2.8 4.2-4 7-3.5 8.3 0.2 0.5 0.6 0.9 1.2 1 0.7 0.2 1.4 0.2 2.2 0.2 3.3 0 6.4-1.7 9.1-4.9 1.7-2 2.8-4.1 3.4-5.2 8.5-0.7 17-2 25.5-3.9 0.1 0 0.1 0 0.2 0 0.3 0 0.5-0.1 0.7-0.2 6.1-1.4 12.2-3.1 18.2-5.2 0.1 0 2.9-1 2.8-2.7 0-0.3-0.2-1.2-1.5-1.4 -0.7-0.1-1.3 0.3-1.4 1 0 0.2 0 0.4 0 0.6 -0.2 0.1-0.4 0.2-0.7 0.3 -6.2 2.1-12.4 3.8-18.6 5.2 -3.1 0-10.6-0.7-12.2-12.2 -0.1-0.5-0.1-0.8-0.2-1.1 -0.2-0.6-0.9-0.9-1.5-0.7 -0.6 0.2-0.9 0.9-0.7 1.5 0 0.1 0.1 0.4 0.1 0.6 0.9 6.8 3.8 11.2 8.5 13.1 -14.2 2.7-28.4 3.7-42.5 3 -21.7-1.2-35.8-6.1-40.9-8.2 -7.1-2.9-20.5-4.8-26.1-0.5l-0.1 0.1c-3.8 2.9-14.9 11.3-18.8 11.9 -0.2-0.3-0.4-1-0.6-2.1h1.8c0.4 0 0.7-0.3 0.7-0.7 0-0.4-0.3-0.7-0.7-0.7h-2c-0.1-0.7-0.1-1.5-0.1-2.4h5.4c0.4 0 0.7-0.3 0.7-0.7 0-0.4-0.3-0.7-0.7-0.7h-5.4c0-0.7 0.1-1.5 0.1-2.4h9c0.4 0 0.7-0.3 0.7-0.7 0-0.4-0.3-0.7-0.7-0.7h-8.9c0.1-0.8 0.2-1.6 0.3-2.4h8.6c0.4 0 0.7-0.3 0.7-0.7 0-0.4-0.3-0.7-0.7-0.7h-8.5c0.1-0.4 0.1-0.8 0.2-1.2 0.1-0.4 0.1-0.8 0.2-1.2h8.1c0.4 0 0.7-0.3 0.7-0.7 0-0.4-0.3-0.7-0.7-0.7h-8c0.1-0.8 0.1-1.6 0.1-2.4h7.9c0.4 0 0.7-0.3 0.7-0.7 0-0.4-0.3-0.7-0.7-0.7h-8c-0.1-0.8-0.2-1.6-0.3-2.4h6.8c0.4 0 0.7-0.3 0.7-0.7 0-0.4-0.3-0.7-0.7-0.7h-7.1c-0.2-0.9-0.4-1.7-0.7-2.4h5.6c0.4 0 0.7-0.3 0.7-0.7 0-0.4-0.3-0.7-0.7-0.7H194c-0.4-0.9-0.8-1.7-1.2-2.4h2.2c0.4 0 0.7-0.3 0.7-0.7 0-0.4-0.3-0.7-0.7-0.7h-3c-0.5-0.8-1-1.4-1.4-1.9 3.7-1.1 10.9 2.7 17.3 6.1 2.9 1.5 5.7 3 8.2 4.1 9.3 4 20-0.7 20.8-1 37.8-14.9 67.7-12.6 86.1-8 18.1 4.5 29.8 12.3 32.5 14.8 -2 1.1-9.1 2.5-15.2 3.2 -0.7 0.1-1.1 0.7-1 1.3 0.1 0.7 0.7 1.1 1.3 1 0 0 4.2-0.5 8.4-1.3 7.7-1.5 9.3-2.7 9.3-4.2C358.2 89.3 358.2 88.6 354.5 86zM302 108.3c-1.4 2.4-4.2 6.5-8.2 7.3l6-7.2C300.5 108.4 301.3 108.4 302 108.3zM298.4 108.5l-6.1 7.3c-0.3 0-0.6 0-1-0.1 0.4-1.3 2.2-4.4 4.1-7.1C296.4 108.6 297.4 108.6 298.4 108.5zM248.5 103.1c-0.9 1.7-3 5.2-6.9 6.8l5.9-7.1C247.8 102.9 248.1 103 248.5 103.1zM246.4 102.5l-6.6 7.9c-0.5 0.1-1.1 0.2-1.6 0.2 -0.3-0.1-0.7-0.6-1.3-1.2l6.6-7.9C244.3 101.8 245.3 102.1 246.4 102.5zM239.7 100.1c0.7 0.3 1.6 0.6 2.7 1l-6.2 7.4c-0.5-0.8-1.1-1.7-1.5-2.7l4.8-5.8C239.6 100 239.7 100.1 239.7 100.1zM234.3 104.8c-0.5-1.4-0.6-2.1-0.6-2.4 1.6-1 3.6-2 4.7-2.6L234.3 104.8zM225.5 83.1c0.2-0.7 0.6-1.7 1.2-2.7l1.9 2.3C227.7 82.9 226.6 83 225.5 83.1zM229.9 82.5l-2.4-2.9c0.5-0.6 1.2-1.1 2-1.5 0.1 0 0.1-0.1 0.2-0.1l3.1 3.8C231.9 82 230.9 82.3 229.9 82.5zM235.9 80.7L235.9 80.7c-0.1 0-0.8 0.4-2.1 0.8l-3.2-3.9c0.8-0.4 1.7-0.7 2.6-1.1l3.3 4C236.3 80.5 236.1 80.6 235.9 80.7zM237.5 80.1l-3.3-4c0.8-0.4 1.7-0.7 2.6-1.1l3.4 4.1C239.2 79.4 238.4 79.7 237.5 80.1zM241.2 78.7l-3.4-4.1c0.9-0.4 1.7-0.7 2.6-1.1 0 0 0 0.1 0 0.1l3.5 4.2C243 78 242.1 78.4 241.2 78.7zM244.9 77.4l-3.5-4.3c0.9-0.4 1.8-0.7 2.7-1.1 0 0.1 0 0.2 0.1 0.2l3.5 4.2C246.7 76.8 245.8 77.1 244.9 77.4zM248.7 76.1l-3.7-4.5c1-0.4 1.9-0.7 2.8-1.1 0 0.1 0 0.3 0.1 0.4l3.6 4.3C250.5 75.6 249.6 75.9 248.7 76.1zM252.6 75l-3.9-4.6c0 0 0 0-0.1-0.1 1-0.4 2-0.8 3-1.1 -0.1 0.2-0.1 0.4 0.1 0.5l3.7 4.5C254.4 74.5 253.5 74.7 252.6 75zM256.5 73.9l-4-4.9c0-0.1-0.1-0.1-0.2-0.1 1.2-0.4 2.2-0.8 3.1-1.2 -0.2 0.2-0.2 0.5 0 0.7l3.9 4.8C258.4 73.4 257.4 73.7 256.5 73.9zM260.5 72.9l-4.3-5.1c-0.1-0.1-0.2-0.1-0.3-0.2 0.8-0.3 1.4-0.5 1.8-0.7 0.3-0.1 0.8-0.1 1.3 0.1 0 0 0 0.1 0.1 0.1l4.2 5.1C262.4 72.5 261.4 72.7 260.5 72.9zM264.5 72l-3.5-4.3c1.8 0.9 3.9 2.2 6 3.8C266.2 71.7 265.4 71.8 264.5 72zM274.7 70.3c1-0.8 2-1.6 2.9-2.3l1.5 1.8C277.6 69.9 276.2 70.1 274.7 70.3zM280.4 69.6l-1.9-2.3c0.7-0.6 1.4-1.1 2.1-1.7l3.1 3.7C282.5 69.4 281.4 69.5 280.4 69.6zM284.9 69.2l-3.5-4.3c0.8-0.6 1.5-1.2 2.1-1.7l4.8 5.7C287.1 69.1 286 69.2 284.9 69.2zM289.5 69l-5.3-6.3c0.1-0.1 0.3-0.2 0.3-0.3 0 0 0 0 0 0 2.7 0 5.5 3.8 7 6.6C290.9 69 290.2 69 289.5 69z"/>
</svg>
