<svg xmlns="http://www.w3.org/2000/svg" version="1.1" x="0" y="0" viewBox="0 0 50 50" enable-background="new 0 0 50 50" xml:space="preserve"><g display="none"/><g opacity="0.6"><defs><rect x="-625.6" y="223.7" opacity="0.6" width="960" height="190.6"/></defs><clipPath><use overflow="visible"/></clipPath><g clip-path="url(#SVGID_2_)"><defs><rect x="-769.7" y="-399" width="1121.2" height="840.9"/></defs><clipPath><use overflow="visible"/></clipPath><g clip-path="url(#SVGID_4_)"><image overflow="visible" width="2560" height="1920" transform="matrix(0.438 0 0 0.438 -769.7112 -398.9744)"/></g></g></g><path fill="#FFFFFF" d="M26.7 37.2h-5.6V26.1h-2v-4.6h2v-2c0-2.2 0.1-3.8 1.6-5.5 1.4-1.6 3.4-2.5 5.5-2.5 0.9 0 1.6 0.2 2.4 0.6v4.8c-0.6-0.3-1.2-0.5-2-0.5 -1.4 0-1.9 0.9-1.9 2.6v2.6h3.9v4.6h-3.9V37.2z"/><path fill="#FFFFFF" d="M24.8 46.8c-12.4 0-22.5-10.1-22.5-22.5S12.4 1.8 24.8 1.8s22.5 10.1 22.5 22.5S37.3 46.8 24.8 46.8zM24.8 3.9C13.6 3.9 4.4 13 4.4 24.3s9.2 20.4 20.4 20.4 20.4-9.2 20.4-20.4S36.1 3.9 24.8 3.9z"/></svg>