<svg xmlns="http://www.w3.org/2000/svg" version="1.1" x="0" y="0" viewBox="0 0 474 14" enable-background="new 0 0 474 14" xml:space="preserve"><g display="none"/><g opacity="0.7"><path fill="#66A7AA" d="M61.5 8.7c0.3 0 0.1-0.1 0.1-0.2C61.6 8.5 61.6 8.6 61.5 8.7zM88.1 5.6c0.4 0.2 0.8 0.2 1.1 0.1C88.7 5.5 88.3 5.4 88.1 5.6zM114.5 4c0.6 0.2 0.9 0.6 1.3-0.2C115.5 3.5 114.8 3.9 114.5 4zM180.1 9.4l0.3 0.2C180.6 9.4 180.8 9.3 180.1 9.4zM14.5 10.1C14.5 10.1 14.5 10.1 14.5 10.1 15 10.3 15.2 10.4 14.5 10.1zM412.4 5.5c0-0.1 0.1-0.2 0.1-0.2C412.2 5.3 412.3 5.4 412.4 5.5zM459.5 3.9C459.5 3.9 459.5 3.9 459.5 3.9 459 3.7 458.8 3.6 459.5 3.9zM293.9 4.6l-0.3-0.2C293.4 4.6 293.2 4.7 293.9 4.6zM384.9 8.2c0.4 0.2 0.8 0.4 1.1 0.1C385.5 8.2 385.2 8.2 384.9 8.2zM358.3 10.1c0.2 0.4 0.9 0 1.3-0.2C359 9.7 358.7 9.4 358.3 10.1zM352.2 10.1l-0.2 0C352.1 10.1 352.2 10.1 352.2 10.1zM472.3 4.1c-0.6-0.8-0.3 0.1-1.2-0.9 0.8 1.2-3.3 0-2 1.2 -0.9-1.1-1.6-0.5-2.8-1.4 0 0.3 0.4 0.5-0.6 0.4 0 0.1-0.2 0.2-0.2 0.2 0 0 0 0-0.1 0 0 0 0 0 0.1 0 0 0-0.1 0 0 0 0.3 0.1 0.5 0.3 0.5 0.4 -0.5 0.6-2.3 0.6-2.8 0.9 -0.6-0.1 0.3-0.3-0.1-0.6l-0.9 0.5c-0.1-0.6-1.7-1-0.2-1.4l-1.4 0c-0.8-0.3-1.9-0.5-2.6-0.2 -0.6-0.1-1.6 0.7-1.1 0.2l-2.1 0.4 0-0.2c-2.1-0.1-4.3 1-6.7-0.1 -0.7 0.2-1.4 0.3-2.6 0.2l-0.2-0.5c-0.9 0.2-2.7-0.5-3.1 0 -1-1.4-4.4-0.3-6-0.6L436 3.4c-1.1 0-2.2 0.2-3.5 0.4l0.1 0.6c-1.2 0.5-3-0.4-4.9-0.4 0.1-0.2 0.6-0.2 0.9 0 -2.2-1.4-4.7 1-6.7 0 -0.5 0.2-0.9 0.1-1.2 0 0 0 0.1 0 0.1 0 -0.1 0-0.1 0-0.2 0 -0.2-0.1-0.5-0.2-0.7-0.3 0.2 0.1 0.4 0.3 0.6 0.3 -0.4 0-1 0.1-1.6 0.2l-0.2-0.7c0 0-0.1 0-0.1 0 -0.6-0.2-0.5 0.3-0.2 0.8 -0.3 0.1-0.6 0.2-0.8 0.4 -0.5-1.1-1.5 0.4-2.1-0.8 -0.4 0.5-2.5 0.4-3.1 1.3 -0.6-0.1-1.3-0.3-1.8 0.1l-0.3-0.8 -1.4 1.1c-0.9-0.5-1.2-0.8-0.4-1.4 -2 1-1.7 0.4-3.4 1.3l0.1-0.5c-0.6 0-1.6 0.7-2 0.3 -1.4-1-6.9-0.1-10.4-1.1 0.7 1.6-1.7-0.7-1.8 0.5 -0.2-0.4-0.7-0.6-0.1-0.9 -1.8 0.4-2.7-0.6-4 0.4 -0.2-0.4 0.4-0.5 0.2-0.8 -0.1 0.1-0.6 0.3-0.8 0.1 -0.2-0.2 0.3-0.3 0.6-0.5 -1.9 0.1-2 1.2-2.2 2.3 -0.9-0.5-1.4-0.4-2.1 0.3 -0.3-0.4-0.9-0.7 0.3-0.8 -0.6-0.1-4-0.5-4 0.3 -0.2-0.2-0.9-0.1-1.1 0 -1.5-0.1-1.6-0.1-3 0l0.4 0.1c-0.6 1-1.2 0.2-2.3 0.4l0-0.1c-2.6-0.8-1.1 0.4-3.8-0.5l0.1 0.6c-0.2 1.4-2.3-0.8-3.8-0.3l0.5 0.4c-0.8 0.5-2.3-1.9-3.1-2.1 -0.2-0.1 0.3-0.2 0.5-0.3 -2.2-0.8-0.3 0.8-1.9 1 -0.3-0.5 0.4-1.2-0.7-1.2 -0.5-0.4-3.2 1.5-4.7 0.6 0.3 0.4 0.7 0.7-0.1 1 -1.2 0.1-3.1-1.3-4.2-0.2 -0.1-0.1-0.2-0.2-0.2-0.3 -0.9 0.3-2.9 0.5-3.4 1.1 -0.8-2.2-5.5 1.1-5.5-1l-2.7 0.1 0.1-0.2c-1.7-0.1-2.3 0.4-3 0.9 -0.4-0.1-0.1-0.3-0.1-0.4 -2.5-0.4-2.8-0.3-4.9 0.7L332 4.8c-0.6 0.4-3.7-1-6.2-0.3 0-0.1 0.1-0.2 0.3-0.3 -2.8 0.8-6.7-1.9-7.7 0.6l-1.8 0.6c2.4 0.2-0.4 1.1 0.6 1.5 -0.9 0.1-2.4-0.7-1.3-0.9l0.2 0.1c0.4-1.3-3-0.5-2.9-1.3 -4.7 0.1-9.3-0.6-13.7-0.7l0.5 1L298.4 5c-0.4-0.2-0.5-0.8 0.6-0.7 -0.6-0.6-1.8 0.5-1.9 0.7 -2.1-0.4 0.8-1.2 0.2-1.2l-0.9 0.1 0.2 0.1c-0.7 0.4-0.8 0.8-2.1 0.8 -0.8-0.2-0.4-0.6-0.8-0.6 0-0.1-0.1-0.1-0.5 0L291.3 4l0.8 0.8c-0.9 0.4-1.8 0-0.9 0.8 -1.3-1.4-7.2-0.5-8-0.9 -1.2 0.6-2.4 0.6-3.9 0.5 0.4 0.2 0.6 1-0.7 0.9 0.5-1.8-2.3-0.8-3.3-2.1 0.9 0.9-3.6 0.2-2.2 1.4 -1.1-0.1-0.1-0.7-0.9-1.1 -2.5 0.7-5.5-0.5-8.7-0.2 0 0.2 0.5 0.6-0.2 1L261.7 4c-0.6 0.1-0.6 1.4-1.7 0.5 0.2 0.2 0.4 0.5 0 0.6 -6.1-1.2-12.4 0.9-18.6-1.2 0.8 0.5 0.3 0.5-0.4 0.5 0.4 0.1 0 0.6 0.1 0.9l-2.6-0.9c-0.5 0.9-2.8 0.1-3 0.9l0.8-0.2c-0.1 0.1-0.2 0.2-0.2 0.3 -1.2 0.6-3.1-1.8-5-0.2 -0.4-0.3 0.4-0.4 0.1-0.7 -0.5 0.6-1.1 0.7-2.3 0.4l0.1-0.1c-3.2 0.1-4.6-0.4-8.1-0.8l0.3 0.6c-0.8-0.1-0.9-0.3-1.3-0.4 -0.9 1 2.2 0.1 1.4 1.1 -1-1.3-5.4 0-6.1-1.5 -1.2 0 0.3 0.7-0.8 0.7L214 4.2l-0.3 0.5c-0.8-0.1-1.2-0.6-1.2-0.9 0.2 0 0.5-0.1 0.7-0.1 -1-0.5-2.8 0.2-3.2 0l1.1 0.2c-3.2 0.4-7.2-0.2-10.3 0.7l0.2 0.3c-2.4 0.6-1.9-0.3-4.5-0.1l0.1-0.1c-0.5 0.3-1.2 0.5-1.9 0.4 0.7-0.4-1.2-0.7-0.4-1.1 -2.6 0.6-1.3 0.5-3 1.6L191 5.2c-0.6 0.5-0.6 0.7-1.9 0.8 1.1-0.4-0.8-0.8 0.4-1.3 -2.7-1.1-4.1 1.1-5.3-0.5 -1.3 1.4 2.4 0.8 1.7 1.1 0.6 0.5-1 1-1.9 0.9 -0.9 0-1.5-1.8-3.7-1.7 0.2 0 0.2-0.1 0.5-0.1 -0.8-0.4-1.6 0.5-2.6-0.1 -0.6 0.8-1.3 0-1.5 1l2-0.2c-1.1 0.3-2.2 1.5-4.1 0.9 0.1-0.2 0.7-0.5 1.1-0.7 -0.6-0.3-1.1 0.2-1.6-0.1 0.2-1.1 2.5-0.2 3.7-1 -0.6-0.5-2.3 0.8-1.7-0.4 -0.9 1.5-2.2-0.2-3.7 0.9l0.1-0.6c-0.2 0.1-0.7 0.4-1.2 0.4l0.8-0.8c-1.2 0.7-2.3-0.6-3.5-0.2 2.4 0 0.5 0.8 1.6 1.2 -3 0.9-1.7-1.7-5.1-1.4 0.5-0.1 1.7 0.4 1 0.7 -0.6-0.1-1.5-0.4-1.9-0.7 -2.2 0.1 0.3 0.7-0.6 1.1 -0.8-0.8-1.1 0.3-2.1 0.6l0-0.7c-2.5-0.4-0.7 1.4-3 0.9l1-0.9 -1.2 0.2 0.2-0.7c-1.3 0.6-1.7 0.4-3 0.2 0.3 0.5-0.2 1.2-1.3 1.2 -0.8-0.4 0.4-0.6-1.2-0.5 0.4-0.4 0.8-0.9 1.4-0.3 0.1-0.2 0.4-0.4 0.4-0.6 -0.8-0.4-2.1-0.1-2.6-0.1 0.2 0 0.5 0.1 0.6 0.2l-2.3 0.9c-0.4-0.2-0.1-0.4 0.2-0.6 -0.5 0.1-0.8 0.4-1.5 0.4 0.2-0.5 0.1-1.1 1.1-1.3l-2.2 0.6c-0.1-0.2-1.1-0.6-0.8-0.8 -1.2-0.3-3 1-4.6 0.6 -0.1 0.1-0.3 0.2-0.6 0.3 -1.5-0.1-2.9-0.8-4.7 0l-1-0.9c-1.4 0.2 1.4 1.2-1 1.6 -1.7 0.3-0.6-0.8-1.2-1.1 -0.8 0.5-2.3 1.5-3.8 0.7 0.5-0.2 0.9 0 1.4-0.1l-1.2-0.5c1.4-0.9 2.4-0.6 1.3-1.3 -0.2 1.8-4.5 0.2-4.7 2l-0.8-0.4c0.2 0 0.3-0.1 0.5-0.1 -1.5-0.9-1.1 1.3-3 1.1 -0.7-0.1-1.1-0.4-0.7-0.6l-1.5 0.5c-0.4 0-0.3-0.3-0.1-0.3l-2.1 0.1 0-0.1c-0.3 0.3-1.1 0.7-1.4 0.9 -0.6-0.3 0.3-0.2 0.1-0.4L117.1 5c-0.5-0.5 0.5-0.9 1.4-0.9 -1.2-1.8-1 0.5-3.6-0.6l1.2-0.2c-0.8-1-1.7-0.7-3-1.3 0.3 0.3 2.7 1.6 1.3 2.1 -0.4-0.1-0.9-0.2-1.6 0.2 0-0.7-0.7-0.5-1.6-0.5l0.1-0.9c-1 0.2-0.9 0.7-1.5 1.1 -1.1-0.1-1.3-0.8-1.6-1.3 -1.7-0.1 1.2 1.1-0.9 1.2 -1.4-0.3-2.5 0-4.2 0.5 -1-0.3 0.2-0.5-0.2-0.8l-0.9 0.7c-0.2 0-0.1-0.2-0.1-0.3 -0.8 0.3-0.1 0.9-1.3 1.1 -0.3 1-2.4-1.4-3.9-0.3 -0.4-0.2 0.2-0.5 0.1-0.9 -2 0.7-1.7 0.5-3.4 1.5l-1.4-0.6c1 0.6-0.3 1.4-1.4 2 0.4 0.3 0.7 0.6 0.9 0.7L89.7 8c-0.2-0.1 0-0.4 0.3-0.8 -0.1 0.1-0.2 0.1-0.3 0.2 -0.7-0.3-0.3-0.8 0.2-1.3 0.2 0.2 0.4 0.4 0.7 0.5 0.5-0.5 0.9-1.1 0.8-1.6 -0.1 0.1-0.4 0.2-0.6 0.2C90.7 5.2 90.8 5 90.7 5c-0.1-0.1-0.3 0.1-0.6 0.3l-0.4-1 -0.1 0.4 -2.4-0.6c-1.7 1-3.2 2.4-6 2.8 0.7-0.7 0.1-1.2 0.2-2 0.8 0.9 2.1-0.4 3.6-0.2 -0.7-0.1-0.6-0.5-0.4-0.6L82 4.9c0.1-0.7-0.5-0.5-1.2-0.8 0.5 1.4-1.9 0.9-2.9 1.3 -0.1-0.5 0.2-0.9 1.4-0.8 -1.4-1-1.8 1.6-3.2 0.7 0.3 0 0.5 0.1 0.6-0.2 -0.7 0.4-2.5 0.1-2.1-0.3l0.3 0c-2-0.2-6.2 0-6.5 1.1 0-0.1 0.3-1.4 0.4-1.6l-3.7 3.9c0.3-1-0.9-3.3 0.8-3.9 -0.5-0.1-1.1-0.3-2.1 0 0.3 0.1 0.8 1.4 0.4 1.5 -1.2-1.1-0.9-0.6-2.4-1.5 0.5 0.2-0.1 1.8-0.8 1.7 0.1-0.2-0.1-1.5 0.2-1.7l-2 1.5c0.5-0.3 0.1-1.3-0.4-1.7 0.2 0.3-1.7 0-2.2 0.1l0.8 0.4c-2.2-0.2-2.2 2.1-4.4 2.1 0.3-0.3 0.7-1.9-0.5-2.1 -0.5 0.8-2.3 3.7-4.2 4.3l-0.4-0.4L46.6 9c0.9-1.2 3.5-3.6 5-4.6 -0.8-0.4-0.2-0.5-1.5-0.5 -0.4-0.4 0.7-0.6 1-0.7L48.2 3c0.1 0.9-2.2 0.9-2.1 1.7l3.1-0.9c0.1 0.9-1.8 2.6-3.9 2.4 -0.5-0.4 0.4-1.6 0.3-1.9 -0.3 0.3-1.9 0.6-2.1 0.4l0.9-0.5c-1.1-0.3-1.9 1.2-3.2 0.3 -0.5-0.1-1.4-1.2-1.5-0.6 0.8 1 0.9 4.2 0.4 5 -0.2-0.1-2.5-1-3-1.5 -0.8-0.8 1.2-1.9 0.5-2.6 0 0.2-0.5 0.6-0.6 0.7 -0.5-0.2 0.2-0.8-0.9-0.7C36 5.6 34 4.6 35.7 5.5c-1.1 0.3-1.1-0.2-2.4-0.1 0.4 0.6-1.1 2-2.2 2.3 0.1-0.2-0.2-0.5-0.3-0.7 -2.2-0.1-3.3-0.5-5.3-0.5 -0.2-0.2-1.2-0.5-0.7-0.9C24.5 5.7 24.2 6 23.6 6 22.4 5.2 25 5.9 24 4.9 24 5.5 22.4 5.7 21.5 6c0.3 0.8 2 0.2 2.9-0.2 0 1.1-1.5 2.3-3.6 2.9 -1.7 0.3-0.7-0.7-1-0.6 -3.1-0.2-2.7 2-5.3 1.2 -1-0.7 0-1.4-0.3-2 1.4-0.3 2.1 0.5 3 0.4l-1.1-0.3C16.6 7.2 17.5 7 18 7.2c-0.9-0.7-5.3-0.1-7.7-0.7C9.8 6.7 9.1 7 9.4 7.2l0.8-0.1C10.9 7.7 8.7 8 9.7 8.2 8.7 8.6 7.5 9.3 6.1 9L5.8 8.1c0 0.2 0.9 0.5 1.4 0.2 -0.6 0.4-2.2-1.1-2.9 0l1 0.6c-1 0.4-2.3 1.3-3.6 1 0.6 0.8 0.3-0.1 1.2 0.9 -0.8-1.2 3.3 0.1 2-1.2 0.9 1.1 1.6 0.5 2.8 1.4 0-0.3-0.4-0.5 0.6-0.4 0-0.1 0.2-0.2 0.2-0.2 0 0 0 0 0.1 0 0 0 0 0-0.1 0 0 0 0.1-0.1 0 0 -0.3-0.1-0.5-0.3-0.5-0.4 0.5-0.6 2.3-0.6 2.8-0.9 0.6 0.1-0.3 0.3 0.1 0.6l0.9-0.5c0.1 0.6 1.7 1 0.2 1.4l1.4 0c0.8 0.3 1.9 0.5 2.6 0.2 0.6 0.1 1.6-0.7 1.1-0.2l2.1-0.4 0 0.2c2.1 0.1 4.3-1 6.7 0.1 0.7-0.2 1.4-0.3 2.6-0.2l0.2 0.5c0.9-0.2 2.7 0.5 3.1 0 1 1.4 4.4 0.3 6 0.6l0.1-0.7c1.1 0 2.2-0.2 3.5-0.4l-0.1-0.6c1.2-0.5 3 0.4 4.9 0.4 -0.1 0.2-0.6 0.2-0.9 0 2.2 1.4 4.7-1 6.7 0 0.5-0.2 0.9-0.1 1.2 0 0 0-0.1 0-0.1 0 0.1 0 0.1 0 0.2 0 0.2 0.1 0.5 0.2 0.7 0.3 -0.2-0.1-0.4-0.3-0.6-0.3 0.4 0 1-0.1 1.6-0.2l0.2 0.7c0 0 0.1 0 0.1 0 0.6 0.2 0.5-0.3 0.2-0.8 0.3-0.1 0.6-0.2 0.8-0.4 0.5 1.1 1.5-0.4 2.1 0.8 0.4-0.5 2.5-0.4 3.1-1.3 0.6 0.1 1.3 0.3 1.8-0.1l0.3 0.8 1.4-1.1c0.9 0.5 1.2 0.8 0.4 1.4 2-1 1.7-0.4 3.4-1.3L68.7 9c0.6 0 1.6-0.7 2-0.3 1.4 1 6.9 0.1 10.4 1.1 -0.7-1.6 1.7 0.7 1.8-0.5 0.2 0.4 0.7 0.6 0.1 0.9 1.8-0.4 2.7 0.6 4-0.4 0.2 0.4-0.4 0.5-0.2 0.8 0.1-0.1 0.6-0.3 0.8-0.1 0.2 0.2-0.3 0.3-0.6 0.5 1.9-0.1 2-1.2 2.2-2.3 0.9 0.5 1.4 0.4 2.1-0.3 0.3 0.4 0.9 0.7-0.3 0.8 0.6 0.1 4 0.5 4-0.3 0.2 0.2 0.9 0.1 1.1 0 1.5 0.1 1.6 0.1 3 0l-0.4-0.1c0.6-1 1.2-0.2 2.3-0.4l0 0.1c2.6 0.8 1.1-0.4 3.8 0.5l-0.1-0.6c0.2-1.4 2.3 0.8 3.8 0.3L108 8.2c0.8-0.5 2.3 1.9 3.1 2.1 0.2 0.1-0.3 0.2-0.5 0.3 2.2 0.8 0.3-0.8 1.9-1 0.3 0.5-0.4 1.2 0.7 1.2 0.5 0.4 3.2-1.5 4.7-0.6 -0.3-0.4-0.7-0.7 0.1-1 1.2-0.1 3.1 1.3 4.2 0.2 0.1 0.1 0.2 0.2 0.2 0.3 0.9-0.3 2.9-0.5 3.4-1.1 0.8 2.2 5.5-1.1 5.5 1l2.7-0.1 -0.1 0.2c1.7 0.1 2.3-0.4 3-0.9 0.4 0.1 0.1 0.3 0.1 0.4 2.5 0.4 2.8 0.3 4.9-0.7l0.2 0.7c0.6-0.4 3.7 1.1 6.2 0.3 0 0.1-0.1 0.2-0.3 0.3 2.8-0.8 6.7 1.9 7.7-0.6l1.8-0.6c-2.4-0.2 0.4-1.1-0.6-1.5 0.9-0.1 2.4 0.7 1.3 0.9l-0.2-0.1c-0.4 1.3 3 0.5 2.9 1.3 4.7-0.1 9.3 0.6 13.7 0.7l-0.5-1 1.5 0.1c0.4 0.2 0.5 0.8-0.6 0.7 0.6 0.6 1.8-0.5 1.9-0.7 2.1 0.4-0.8 1.2-0.2 1.2l0.9-0.1 -0.2-0.1c0.7-0.4 0.8-0.8 2.1-0.8 0.8 0.2 0.4 0.6 0.8 0.6 0 0.1 0.1 0.1 0.5 0l1.9 0.1 -0.8-0.8c0.9-0.4 1.8 0 0.9-0.8 1.3 1.4 7.2 0.5 8 0.9 1.2-0.6 2.4-0.6 3.9-0.5 -0.4-0.2-0.6-1 0.7-0.9 -0.5 1.8 2.3 0.8 3.3 2.1 -0.9-0.9 3.6-0.2 2.2-1.4 1.1 0.1 0.1 0.7 0.9 1.1 2.5-0.7 5.5 0.5 8.7 0.2 0-0.2-0.5-0.6 0.2-1l1.6 1.2c0.6-0.1 0.6-1.4 1.7-0.5 -0.2-0.2-0.4-0.5 0-0.6 6.1 1.2 12.4-0.9 18.6 1.2 -0.8-0.5-0.3-0.5 0.4-0.5 -0.4-0.1 0-0.6-0.1-0.9l2.6 0.9c0.5-0.9 2.8-0.1 3-0.9l-0.8 0.2c0.1-0.1 0.2-0.2 0.2-0.3 1.2-0.6 3.1 1.8 5 0.2 0.4 0.3-0.4 0.4-0.1 0.7 0.5-0.6 1.1-0.7 2.3-0.4l-0.1 0.1c3.2-0.1 4.6 0.4 8.1 0.8l-0.3-0.6c0.8 0.1 0.9 0.3 1.3 0.4 0.9-1-2.2-0.1-1.4-1.1 1 1.3 5.4 0 6.1 1.5 1.2 0-0.3-0.7 0.8-0.7l0.3 0.4 0.3-0.5c0.8 0.1 1.2 0.6 1.2 0.9 -0.2 0-0.5 0.1-0.7 0.1 1 0.5 2.8-0.2 3.2 0l-1.1-0.2c3.2-0.4 7.2 0.2 10.3-0.7l-0.2-0.3c2.4-0.6 1.9 0.3 4.5 0.1l-0.1 0.1c0.5-0.3 1.2-0.5 1.9-0.4 -0.7 0.4 1.2 0.7 0.4 1.1 2.6-0.6 1.3-0.5 3-1.6l0.4 0.5c0.6-0.5 0.6-0.7 1.9-0.8 -1.1 0.4 0.8 0.8-0.4 1.3 2.7 1.1 4.1-1.1 5.3 0.5 1.3-1.4-2.4-0.8-1.7-1.1 -0.6-0.5 1-1 1.9-0.9 0.9 0 1.5 1.8 3.7 1.7 -0.2 0-0.2 0.1-0.5 0.1 0.8 0.4 1.6-0.5 2.6 0.1 0.6-0.8 1.3 0 1.5-1l-2 0.2c1.1-0.3 2.2-1.5 4.1-0.9 -0.1 0.2-0.7 0.5-1.1 0.7 0.6 0.3 1.1-0.2 1.6 0.1 -0.2 1.1-2.5 0.2-3.7 1 0.6 0.5 2.3-0.8 1.7 0.4 0.9-1.5 2.2 0.2 3.7-0.9l-0.1 0.6c0.2-0.1 0.7-0.4 1.2-0.4l-0.8 0.8c1.2-0.7 2.3 0.6 3.5 0.2 -2.4 0-0.5-0.8-1.6-1.2 3-0.9 1.7 1.7 5.1 1.4 -0.5 0.1-1.7-0.4-1-0.7 0.6 0.1 1.5 0.4 1.9 0.7 2.2-0.1-0.3-0.7 0.6-1.1 0.8 0.8 1.1-0.3 2.1-0.6l0 0.7c2.5 0.4 0.7-1.4 3-0.9l-1 0.9 1.2-0.2 -0.2 0.7c1.3-0.6 1.7-0.4 3-0.2 -0.3-0.5 0.2-1.2 1.3-1.2 0.8 0.4-0.4 0.6 1.2 0.5 -0.4 0.4-0.8 0.9-1.4 0.3 -0.1 0.2-0.4 0.4-0.4 0.6 0.8 0.4 2.1 0.1 2.6 0.1 -0.2 0-0.5-0.1-0.6-0.2l2.3-0.9c0.4 0.2 0.1 0.4-0.2 0.6 0.5-0.1 0.8-0.4 1.5-0.4 -0.2 0.5-0.1 1.1-1.1 1.3l2.2-0.6c0.1 0.2 1.1 0.6 0.8 0.8 1.2 0.3 3-1 4.6-0.6 0.1-0.1 0.3-0.2 0.6-0.3 1.5 0.1 2.9 0.8 4.7 0l1 1c1.4-0.2-1.4-1.2 1-1.6 1.7-0.3 0.6 0.8 1.2 1.1 0.8-0.5 2.3-1.5 3.8-0.7 -0.5 0.2-0.9 0-1.4 0.1l1.2 0.5c-1.4 0.9-2.4 0.6-1.3 1.3 0.2-1.8 4.5-0.2 4.7-2l0.8 0.4c-0.2 0-0.3 0.1-0.5 0.1 1.5 0.9 1.1-1.3 3-1.1 0.7 0.1 1.1 0.4 0.7 0.6l1.5-0.5c0.4 0 0.3 0.3 0.1 0.3l2.1-0.1 0 0.1c0.3-0.3 1.1-0.7 1.4-0.9 0.6 0.3-0.3 0.2-0.1 0.4l1.3-0.4c0.5 0.5-0.5 0.9-1.4 0.9 1.2 1.8 1-0.5 3.6 0.6l-1.2 0.2c0.8 1 1.7 0.7 3 1.3 -0.3-0.3-2.7-1.6-1.3-2.1 0.4 0.1 0.9 0.2 1.6-0.2 0 0.7 0.7 0.5 1.6 0.5l-0.1 0.9c1-0.2 0.9-0.7 1.5-1.1 1.1 0.1 1.3 0.8 1.6 1.3 1.7 0.1-1.2-1.1 0.9-1.2 1.4 0.3 2.5 0 4.2-0.5 1 0.3-0.2 0.5 0.2 0.8l0.9-0.7c0.2 0 0.1 0.2 0.1 0.3 0.8-0.3 0.1-0.9 1.3-1.1 0.3-1 2.4 1.4 3.9 0.3 0.4 0.2-0.2 0.5-0.1 0.9 2-0.7 1.7-0.5 3.4-1.5l1.4 0.6c-1-0.6 0.3-1.4 1.4-2 -0.4-0.3-0.7-0.6-0.9-0.7l1.9-0.5c0.2 0.1 0 0.4-0.3 0.8 0.1-0.1 0.2-0.1 0.3-0.2 0.7 0.3 0.3 0.8-0.2 1.3 -0.2-0.2-0.4-0.4-0.7-0.5 -0.5 0.5-0.9 1.1-0.8 1.6 0.1-0.1 0.4-0.2 0.6-0.2 -0.1 0.1-0.2 0.3-0.1 0.4 0.1 0.1 0.3-0.1 0.6-0.3l0.4 1 0.1-0.4 2.4 0.6c1.7-1 3.2-2.4 6-2.8 -0.7 0.7-0.1 1.2-0.2 2 -0.8-0.9-2.1 0.4-3.6 0.2 0.7 0.1 0.6 0.5 0.4 0.6l2.5-0.8c-0.1 0.7 0.5 0.5 1.2 0.8 -0.5-1.4 1.9-0.9 2.9-1.3 0.1 0.5-0.2 0.9-1.4 0.8 1.4 1 1.8-1.6 3.2-0.7 -0.3 0-0.5-0.1-0.6 0.2 0.7-0.4 2.5-0.1 2.1 0.3l-0.3 0c2 0.2 6.2 0 6.5-1.1 0 0.1-0.3 1.4-0.4 1.6l3.7-3.9c-0.3 1 0.9 3.3-0.8 3.9 0.5 0.1 1.1 0.3 2.1 0 -0.3-0.1-0.8-1.4-0.4-1.5 1.2 1.1 0.9 0.6 2.4 1.5 -0.5-0.2 0.1-1.8 0.8-1.7 -0.1 0.2 0.1 1.5-0.2 1.7l2-1.5c-0.5 0.3-0.1 1.3 0.4 1.7 -0.2-0.3 1.7 0 2.2-0.1l-0.8-0.4c2.2 0.2 2.2-2.1 4.4-2.1 -0.3 0.3-0.7 1.9 0.5 2.1 0.5-0.8 2.3-3.7 4.2-4.3l0.4 0.4 1.5-0.5c-0.9 1.2-3.5 3.6-5 4.6 0.8 0.4 0.2 0.5 1.5 0.5 0.4 0.4-0.7 0.6-1 0.7l2.9 0.3c-0.1-0.9 2.2-0.9 2.1-1.7l-3.1 0.9c-0.1-0.9 1.8-2.6 3.9-2.4 0.5 0.4-0.4 1.6-0.3 1.9 0.3-0.3 1.9-0.6 2.1-0.4l-0.9 0.5c1.1 0.3 1.9-1.2 3.2-0.3 0.5 0.1 1.4 1.2 1.5 0.6 -0.8-1-0.9-4.2-0.4-5 0.2 0.1 2.5 1 3 1.5 0.8 0.8-1.2 1.9-0.5 2.6 0-0.2 0.5-0.6 0.6-0.7 0.5 0.2-0.2 0.8 0.9 0.7 0.2-0.9 2.2 0.1 0.5-0.8 1.1-0.3 1.1 0.2 2.4 0.1 -0.4-0.6 1.1-2 2.2-2.3 -0.1 0.2 0.2 0.5 0.3 0.7 2.2 0.1 3.3 0.5 5.3 0.5 0.2 0.2 1.2 0.5 0.7 0.9 0.3-0.2 0.6-0.5 1.2-0.5 1.2 0.8-1.4 0.1-0.5 1.1 0.1-0.5 1.6-0.7 2.5-1.1 -0.3-0.8-2-0.2-2.9 0.2 0-1.1 1.5-2.3 3.6-2.9 1.7-0.3 0.7 0.7 1 0.6 3.1 0.2 2.7-2 5.3-1.2 1 0.7 0 1.4 0.3 2 -1.4 0.3-2.1-0.5-3-0.4l1.1 0.3c-0.4 0.2-1.3 0.4-1.8 0.2 0.9 0.7 5.3 0.1 7.7 0.7 0.4-0.2 1.2-0.5 0.8-0.8l-0.8 0.1c-0.7-0.6 1.4-0.8 0.5-1.1 1-0.4 2.2-1.1 3.6-0.7l0.3 0.8c0-0.2-0.9-0.5-1.4-0.2 0.6-0.4 2.2 1.1 2.9 0l-1-0.6C469.8 4.7 471 3.8 472.3 4.1zM14.5 10.2C14.5 10.1 14.5 10.1 14.5 10.2 15.2 10.4 15 10.3 14.5 10.2zM61.5 8.7c0-0.1 0.1-0.1 0.1-0.2C61.7 8.6 61.8 8.7 61.5 8.7zM88.1 5.6c0.3-0.2 0.6-0.1 1.1 0.1C88.8 5.8 88.5 5.8 88.1 5.6zM114.5 4c0.3-0.1 1-0.6 1.3-0.2C115.3 4.6 115 4.3 114.5 4zM180.4 9.6l-0.3-0.2C180.8 9.3 180.6 9.4 180.4 9.6zM293.6 4.4l0.3 0.2C293.2 4.7 293.4 4.6 293.6 4.4zM358.3 10.1c0.4-0.7 0.7-0.4 1.3-0.2C359.2 10.1 358.5 10.5 358.3 10.1zM384.9 8.2c0.3-0.1 0.7 0 1.1 0.1C385.7 8.6 385.3 8.5 384.9 8.2zM412.5 5.3c0 0.1-0.1 0.1-0.1 0.2C412.3 5.4 412.2 5.3 412.5 5.3zM459.5 3.9C458.8 3.6 459 3.7 459.5 3.9 459.5 3.9 459.5 3.9 459.5 3.9zM121.8 3.9l0.2 0C121.9 3.9 121.8 3.9 121.8 3.9z"/></g></svg>