<svg xmlns="http://www.w3.org/2000/svg" version="1.1" x="0" y="0" viewBox="0 0 420 15" enable-background="new 0 0 420 15" xml:space="preserve"><g display="none"/><g opacity="0.6"><defs><rect x="-928.8" y="-363.3" opacity="0.6" width="1120" height="190"/></defs><clipPath><use overflow="visible"/></clipPath><g clip-path="url(#SVGID_2_)"><image overflow="visible" width="2560" height="1920" transform="matrix(-0.4375 0 0 -0.4375 191.181 395.213)"/></g></g><path fill="#FFFFFF" d="M0 7.2c0.2 2.4 1.7 2.9 6 2.6 2.2 0 2.7 0 4.1-1 1.2-0.5 1.7-1 2.2-1.7 1.2-1.9 1.5-2.2 3.1-1.9 1.5 0 1.7-0.2 2.4-1 0.5-0.2 0.7-0.7 0.7-1s0.2-0.5 0.5-0.7c0.2-0.5 0.2-0.5 0.7 0.2 0.2 0.5 0.5 1 0.5 1.4 0 0.7 1.2 1.9 2.2 1.9 1.2 0 2.4-1.2 2.4-2.2 0-0.5 0-0.7 0-0.7 0.2 0 1 1 1.7 2.2 1.7 2.4 2.2 2.9 3.4 3.1 1.2 0.5 2.2 0 4.6-2.4 0.7-0.7 1.2-1.4 1.9-2.2 0.5 0 1 0 1.2 0C39 4.3 39 4.3 40.2 3.4c1-1 1-1.2 2.7-1.2 1.9 0.2 1.9 0 2.7-0.7 1-1 1.2-1 2.9 0.7 0.7 1 1.2 1 1.9 1 0.7 0 1 0.2 1.7 1 0.7 0.7 1.2 1 1.7 1 0.2 0 1 0.2 1.2 0.5 0.5 0.5 1 0.7 1.5 0.7 0.7 0 2.2-0.7 2.9-1.4 0.5-0.5 0.7-0.7 3.6-0.7 2.9 0 3.4 0 3.9-0.2 0.5-0.5 1-0.5 1.7-0.5 1.5 0 2.7-0.5 3.6-1.4 0.5-0.2 1-0.5 1-0.5 0.2 0 0.5 0.7 0.5 2.2 0 1.2 0 2.4 0.2 2.9C74 7 76 8.2 76.7 8.2c1.5-0.2 3.1-1.4 3.1-2.6 0.2 0 0.2-0.5 0.5-0.7 0.5-0.2 0.5-0.2 1 0 0.2 0.2 1.2 0.5 3.6 0.5 2.7 0 3.1-0.2 3.6-0.7 0.2-0.2 0.7-0.5 0.7-1 0-0.2 0.2-0.2 0.7-0.2 0.2 0 1 0 1.5-0.2 1-0.2 1.2-0.2 1.7-0.2 0.7 0.2 2.7 0.5 8 0.2 2.2 0 4.6 0 7 0 0.5-0.2 1-0.5 1.5-0.7 1-0.5 2.2-1 2.7-1 1-0.2 1 0 1.5 0.5 1 1.7 4.1 4.3 5.3 4.3 0.2 0 1 0 1.7 0.5 1.5 0.7 3.6 0.2 4.4-1 0.5-0.5 0.5-0.7 2.2-0.7 1.5 0 2.2 0 2.7-0.5 1.5-0.7 1.7-0.7 1.7 2.6 -0.2 4.3 0.2 4.8 4.1 4.6 1.7 0 2.4-0.2 3.6-0.7 1.7-1 2.4-1.7 2.2-2.9 0-0.5 0-0.7 0-1 0.2 0 0.5 0 1 0 0.5-0.2 1-0.2 1.5-0.7 0.5-0.2 1-0.5 1.9-0.5 1.7 0 2.2-0.2 3.1-2.2 0.2-0.5 0.5-1 0.7-1.4 0.5 0 1.2 0 1.7 0 1.9 0 2.2 0 4.1 1.2 1.7 1 4.6 0.7 5.3-0.5 0.2-0.7 1.7-1.4 2.4-1.4 0 0 0.5 0.2 0.7 0.5 1 1 4.4 2.9 5.6 2.9 0.7-0.2 1-0.2 1.5-1 0.7-0.7 1-0.7 2.4-1 0.7 0 1.2 0 1.9 0 0.5 0.5 1.2 1.2 1.7 1.9 1.9 1.7 2.2 1.7 2.9 1.7 1 0 1.2 0 1.9-0.5 0.5-0.7 0.7-1 0.7-2.4 0-0.5 0-1 0-1.4 1 0 2.2-0.2 3.1-0.2 1.2 0 2.2 0 3.4 0 0.2 0.2 0.5 0.5 1 0.7 1.2 1.2 1.5 1.4 5.1 1.4 2.9 0 3.6-0.2 4.6-0.5 0.7-0.5 1.7-0.5 2.4-0.5 0.2 0 0.5 0 1 0 0 0.5 0 1.2 0 1.9 0 2.2 0.2 3.1 1.2 3.4 1.7 1 3.1-0.2 4.8-3.4 1-2.4 1.7-2.9 2.9-2.9 0.7 0 1 0 1.5 0.7 0.5 1 1.9 1.7 4.1 2.4 2.7 1 3.4 0.7 5.6-1.2 1-1.2 1.2-1.2 2.7-1.2 1.2 0 1.7 0 2.7 0.7 1.2 0.7 1.7 1.2 2.7 2.9 0.7 1.2 1.7 1.9 2.9 2.2 1 0.2 1.7 0 3.4-1 1.2-0.5 2.2-1.9 2.2-3.6 0-0.5 0-1.2 0-1.2s0.5 0.2 1 0.5c0.5 0.5 1.2 0.5 2.7 0.5 0.7 0 1.5 0 2.2 0 0.2-0.2 0.5-0.5 1-1 0.2-0.2 0.5-0.5 0.7-1 0.5 0.2 0.7 0.5 1 0.5 1.2 0.7 2.7 0.7 3.9 0.2 0.7-0.5 3.1-0.7 4.8-1 0.7 0 1.7 0.5 2.2 1 1.2 0.7 2.9 0.2 3.6-1.2 0.2-0.2 0.7-0.7 1-1 0.5-0.5 0.7-0.5 1.2 0.2 0.5 0.2 1.2 0.7 1.9 1.2 0.5 0.2 1.2 0.7 1.7 1 1.5 1 3.9 1.9 5.1 1.9 1 0 1.2 0 1.9-1 0.7-0.7 1-1.2 1-1.9s0-1 0-1c0.2 0 0.7 0.2 1.2 1 1.2 1 1.9 1.2 2.9 1 0.7-0.2 1-0.2 1.5 0.2 1 1 2.2 1.2 3.4 0.5 1-0.7 1.7-0.7 1.9-0.2 0.2 1 1.2 1.4 2.4 1.4 0.5 0 1.2 0.2 1.5 0.5 0.5 0.2 1.5 0.5 3.1 0.5 2.4 0.2 2.4 0.2 3.1-0.5 0.5-0.2 1-1 1-1.2 0-0.7 0.5-1 1.5-1.4 0.2-0.2 0.7-0.5 1.2-0.5 0.2 0 0.5 0.2 0.7 0.5 1 0.7 2.2 0.5 3.1-0.7 0.5-0.5 0.7-0.7 1-0.2 0.7 0.5 1.5 1.4 1.5 1.7 0.2 0.5 1.2 1.7 2.2 2.2 1 0.5 2.2 0.2 4.1-0.5 0.7-0.2 1.9-0.7 2.7-1 1-0.2 1.2 0 1.7 0.2 0.5 0.5 1 0.5 1.5 0.5 0.7 0 1.2 0 2.2-1.2 1-1 1.7-1.4 2.7-1.9 2.2-0.7 2.7-0.7 2.4 0.2 0 0.5 0.2 1 0.7 1.4 0.7 0.5 1 0.7 2.9 0.7s2.2 0 2.4 0.2c0.5 1.4 2.4 1.9 3.4 1.2 0.5-0.5 0.7-0.2 1.7 0.5 1 1 1.9 1.2 2.9 0.5 1-0.5 1.5-1.2 1.5-2.6 -0.2-0.2-0.2-0.7-0.2-1 0.5 0 0.7 0 1.2 0 1 0.2 1.2 0 1.7-0.5s1-1 1-1.2 0-0.2 0-0.2c0.5 0 2.4 1.4 2.7 2.2 0.5 1 1.9 1.4 3.4 1.7 1.2 0 1.5-0.2 2.2-1 1.2-1 2.4-1.2 2.9-0.5 0.2 0.2 0.7 0.5 1.2 0.7 0.5 0 1.5 1 2.9 2.4 1 1.2 2.2 2.4 2.4 2.6 0.7 0.7 2.2 0.7 2.9 0 0.7-0.5 0.7-0.7 1-2.6 0-1.9 0.2-2.4 1-3.9 0.5-0.7 1.2-1.9 1.5-2.2 0.2-0.2 0.2-0.5 0.5-0.7 0.2 0.5 0.5 0.7 0.7 1.2 0.7 1.4 1.5 1.7 3.1 1.9 0.7 0 1.5 0.2 1.7 0.5 0 0.2 1 0.7 1.7 1 1.5 0.7 1.7 0.7 3.9 0.5 2.7-0.2 2.7-0.2 5.6 0 3.1 0.2 4.1-0.2 4.4-1.9 0-0.5 0.2-0.7 1.7-1.2 0.7-0.2 1.9-0.5 2.4-0.5 0.2 0 0.7 0 1 0 0 0.2 0 0.5 0 1 0 2.9 3.6 3.4 4.8 0.5 0.2-0.7 0.5-1.4 0.5-1.7 0.2-0.5 0.5-0.5 1.2 0.5 1.2 1 2.4 1.4 3.9 1.7 0.5 0 1 0 1.5 0 0.5 0.5 0.7 1 1.2 1.4 1 1.4 1.9 2.2 3.1 2.2 1 0.2 4.1-1 5.1-1.9 0.7-0.5 1.2-0.7 2.2-0.7V15H0V7.2z"/></svg>